<?xml version="1.0" standalone="no"?>
<!DOCTYPE svg PUBLIC "-//W3C//DTD SVG 1.1//EN" "http://www.w3.org/Graphics/SVG/1.1/DTD/svg11.dtd"><svg t="1678617929259"
  class="icon" viewBox="0 0 1024 1024" version="1.1" xmlns="http://www.w3.org/2000/svg" p-id="3126"
  xmlns:xlink="http://www.w3.org/1999/xlink" width="200" height="200">
  <path
    d="M408.3 865.2l-38.5-75.5c-28.3-55.5-78.2-105.4-133.6-133.6l-75.6-38.5 75.6-38.5c55.4-28.2 105.4-78.2 133.6-133.6l38.5-75.5 38.5 75.5C475.1 500.9 525 550.8 580.4 579l75.6 38.5-75.6 38.5c-55.4 28.2-105.3 78.1-133.6 133.6l-38.5 75.6z m-72.6-247.7c13.5 10.5 26.4 21.9 38.6 34 12.2 12.2 23.6 25.1 34 38.6 10.5-13.5 21.9-26.4 34-38.6 12.2-12.2 25.1-23.6 38.6-34-13.5-10.5-26.4-21.9-38.6-34-12.2-12.2-23.6-25.1-34-38.6-10.5 13.5-21.9 26.4-34 38.6-12.2 12.2-25.2 23.6-38.6 34z"
    fill="#0C92F2" p-id="3127"></path>
  <path
    d="M701 503.5l-28.5-56c-16-31.4-44.2-59.6-75.6-75.5l-56-28.5 56-28.5c31.3-16 59.6-44.2 75.6-75.5l28.5-56 28.5 56c16 31.4 44.2 59.6 75.5 75.5l56 28.5-56 28.5c-31.3 15.9-59.5 44.2-75.5 75.5l-28.5 56z m-32.1-160c11.6 9.7 22.4 20.5 32 32 9.6-11.6 20.4-22.4 32-32-11.6-9.6-22.4-20.4-32-32-9.7 11.5-20.5 22.3-32 32z"
    fill="#8AD8FF" p-id="3128"></path>
</svg>
